<mxfile host="app.diagrams.net" modified="2022-04-09T14:05:41.866Z" agent="5.0 (Windows NT 10.0; Win64; x64) AppleWebKit/537.36 (KHTML, like Gecko) Chrome/100.0.4896.75 Safari/537.36" etag="-MTxiyRMiet6AUmnRg2u" version="17.4.2" type="github">
  <diagram id="OG1AvDrZbli9m5KpJTEv" name="Page-1">
    <mxGraphModel dx="1250" dy="482" grid="1" gridSize="10" guides="1" tooltips="1" connect="1" arrows="1" fold="1" page="1" pageScale="1" pageWidth="850" pageHeight="1100" math="0" shadow="0">
      <root>
        <mxCell id="0" />
        <mxCell id="1" parent="0" />
        <mxCell id="iS44KgR9TKx3VwQNo01--7" value="" style="shape=table;startSize=0;container=1;collapsible=0;childLayout=tableLayout;fontFamily=Tahoma;" parent="1" vertex="1">
          <mxGeometry x="300" y="40" width="160.12" height="40" as="geometry" />
        </mxCell>
        <mxCell id="iS44KgR9TKx3VwQNo01--8" value="" style="shape=tableRow;horizontal=0;startSize=0;swimlaneHead=0;swimlaneBody=0;top=0;left=0;bottom=0;right=0;collapsible=0;dropTarget=0;fillColor=none;points=[[0,0.5],[1,0.5]];portConstraint=eastwest;fontFamily=Tahoma;" parent="iS44KgR9TKx3VwQNo01--7" vertex="1">
          <mxGeometry width="160.12" height="40" as="geometry" />
        </mxCell>
        <mxCell id="iS44KgR9TKx3VwQNo01--9" value="&lt;b&gt;conv2d&lt;/b&gt;" style="shape=partialRectangle;html=1;whiteSpace=wrap;connectable=0;overflow=hidden;fillColor=none;top=0;left=0;bottom=0;right=0;pointerEvents=1;fontFamily=Tahoma;" parent="iS44KgR9TKx3VwQNo01--8" vertex="1">
          <mxGeometry width="85" height="40" as="geometry">
            <mxRectangle width="85" height="40" as="alternateBounds" />
          </mxGeometry>
        </mxCell>
        <mxCell id="iS44KgR9TKx3VwQNo01--10" value="&lt;b&gt;Conv2D&lt;/b&gt;" style="shape=partialRectangle;html=1;whiteSpace=wrap;connectable=0;overflow=hidden;fillColor=none;top=0;left=0;bottom=0;right=0;pointerEvents=1;fontFamily=Tahoma;" parent="iS44KgR9TKx3VwQNo01--8" vertex="1">
          <mxGeometry x="85" width="75" height="40" as="geometry">
            <mxRectangle width="75" height="40" as="alternateBounds" />
          </mxGeometry>
        </mxCell>
        <mxCell id="iS44KgR9TKx3VwQNo01--11" value="" style="shape=table;startSize=0;container=1;collapsible=0;childLayout=tableLayout;fontFamily=Tahoma;" parent="1" vertex="1">
          <mxGeometry x="499.94" y="40" width="240" height="40" as="geometry" />
        </mxCell>
        <mxCell id="iS44KgR9TKx3VwQNo01--12" value="" style="shape=tableRow;horizontal=0;startSize=0;swimlaneHead=0;swimlaneBody=0;top=0;left=0;bottom=0;right=0;collapsible=0;dropTarget=0;fillColor=none;points=[[0,0.5],[1,0.5]];portConstraint=eastwest;fontFamily=Tahoma;" parent="iS44KgR9TKx3VwQNo01--11" vertex="1">
          <mxGeometry width="240" height="40" as="geometry" />
        </mxCell>
        <mxCell id="iS44KgR9TKx3VwQNo01--13" value="&lt;b&gt;max_pooling2d&lt;/b&gt;" style="shape=partialRectangle;html=1;whiteSpace=wrap;connectable=0;overflow=hidden;fillColor=none;top=0;left=0;bottom=0;right=0;pointerEvents=1;fontFamily=Tahoma;" parent="iS44KgR9TKx3VwQNo01--12" vertex="1">
          <mxGeometry width="120" height="40" as="geometry">
            <mxRectangle width="120" height="40" as="alternateBounds" />
          </mxGeometry>
        </mxCell>
        <mxCell id="iS44KgR9TKx3VwQNo01--14" value="&lt;b&gt;MaxPooling2D&lt;/b&gt;" style="shape=partialRectangle;html=1;whiteSpace=wrap;connectable=0;overflow=hidden;fillColor=none;top=0;left=0;bottom=0;right=0;pointerEvents=1;fontFamily=Tahoma;" parent="iS44KgR9TKx3VwQNo01--12" vertex="1">
          <mxGeometry x="120" width="120" height="40" as="geometry">
            <mxRectangle width="120" height="40" as="alternateBounds" />
          </mxGeometry>
        </mxCell>
        <mxCell id="iS44KgR9TKx3VwQNo01--15" value="" style="shape=table;startSize=0;container=1;collapsible=0;childLayout=tableLayout;fontFamily=Tahoma;" parent="1" vertex="1">
          <mxGeometry x="779.94" y="40" width="220" height="40" as="geometry" />
        </mxCell>
        <mxCell id="iS44KgR9TKx3VwQNo01--16" value="" style="shape=tableRow;horizontal=0;startSize=0;swimlaneHead=0;swimlaneBody=0;top=0;left=0;bottom=0;right=0;collapsible=0;dropTarget=0;fillColor=none;points=[[0,0.5],[1,0.5]];portConstraint=eastwest;fontFamily=Tahoma;" parent="iS44KgR9TKx3VwQNo01--15" vertex="1">
          <mxGeometry width="220" height="40" as="geometry" />
        </mxCell>
        <mxCell id="iS44KgR9TKx3VwQNo01--17" value="&lt;b&gt;dropout&lt;/b&gt;" style="shape=partialRectangle;html=1;whiteSpace=wrap;connectable=0;overflow=hidden;fillColor=none;top=0;left=0;bottom=0;right=0;pointerEvents=1;fontFamily=Tahoma;" parent="iS44KgR9TKx3VwQNo01--16" vertex="1">
          <mxGeometry width="110" height="40" as="geometry">
            <mxRectangle width="110" height="40" as="alternateBounds" />
          </mxGeometry>
        </mxCell>
        <mxCell id="iS44KgR9TKx3VwQNo01--18" value="&lt;b&gt;Dropout&lt;/b&gt;" style="shape=partialRectangle;html=1;whiteSpace=wrap;connectable=0;overflow=hidden;fillColor=none;top=0;left=0;bottom=0;right=0;pointerEvents=1;fontFamily=Tahoma;" parent="iS44KgR9TKx3VwQNo01--16" vertex="1">
          <mxGeometry x="110" width="110" height="40" as="geometry">
            <mxRectangle width="110" height="40" as="alternateBounds" />
          </mxGeometry>
        </mxCell>
        <mxCell id="iS44KgR9TKx3VwQNo01--22" style="edgeStyle=orthogonalEdgeStyle;rounded=0;orthogonalLoop=1;jettySize=auto;html=1;exitX=1;exitY=0.5;exitDx=0;exitDy=0;entryX=0;entryY=0.5;entryDx=0;entryDy=0;strokeWidth=2;fontFamily=Tahoma;" parent="1" source="iS44KgR9TKx3VwQNo01--8" target="iS44KgR9TKx3VwQNo01--12" edge="1">
          <mxGeometry relative="1" as="geometry" />
        </mxCell>
        <mxCell id="iS44KgR9TKx3VwQNo01--23" style="edgeStyle=orthogonalEdgeStyle;rounded=0;orthogonalLoop=1;jettySize=auto;html=1;exitX=1;exitY=0.5;exitDx=0;exitDy=0;entryX=0;entryY=0.5;entryDx=0;entryDy=0;strokeWidth=2;fontFamily=Tahoma;" parent="1" source="iS44KgR9TKx3VwQNo01--12" target="iS44KgR9TKx3VwQNo01--16" edge="1">
          <mxGeometry relative="1" as="geometry" />
        </mxCell>
        <mxCell id="iS44KgR9TKx3VwQNo01--24" value="" style="shape=table;startSize=0;container=1;collapsible=0;childLayout=tableLayout;fontFamily=Tahoma;" parent="1" vertex="1">
          <mxGeometry x="779.94" y="120" width="220" height="40" as="geometry" />
        </mxCell>
        <mxCell id="iS44KgR9TKx3VwQNo01--25" value="" style="shape=tableRow;horizontal=0;startSize=0;swimlaneHead=0;swimlaneBody=0;top=0;left=0;bottom=0;right=0;collapsible=0;dropTarget=0;fillColor=none;points=[[0,0.5],[1,0.5]];portConstraint=eastwest;fontFamily=Tahoma;" parent="iS44KgR9TKx3VwQNo01--24" vertex="1">
          <mxGeometry width="220" height="40" as="geometry" />
        </mxCell>
        <mxCell id="iS44KgR9TKx3VwQNo01--26" value="&lt;b&gt;conv2d_1&lt;/b&gt;" style="shape=partialRectangle;html=1;whiteSpace=wrap;connectable=0;overflow=hidden;fillColor=none;top=0;left=0;bottom=0;right=0;pointerEvents=1;fontFamily=Tahoma;" parent="iS44KgR9TKx3VwQNo01--25" vertex="1">
          <mxGeometry width="110" height="40" as="geometry">
            <mxRectangle width="110" height="40" as="alternateBounds" />
          </mxGeometry>
        </mxCell>
        <mxCell id="iS44KgR9TKx3VwQNo01--27" value="&lt;b&gt;Conv2D&lt;/b&gt;" style="shape=partialRectangle;html=1;whiteSpace=wrap;connectable=0;overflow=hidden;fillColor=none;top=0;left=0;bottom=0;right=0;pointerEvents=1;fontFamily=Tahoma;" parent="iS44KgR9TKx3VwQNo01--25" vertex="1">
          <mxGeometry x="110" width="110" height="40" as="geometry">
            <mxRectangle width="110" height="40" as="alternateBounds" />
          </mxGeometry>
        </mxCell>
        <mxCell id="iS44KgR9TKx3VwQNo01--28" value="" style="shape=table;startSize=0;container=1;collapsible=0;childLayout=tableLayout;fontFamily=Tahoma;" parent="1" vertex="1">
          <mxGeometry x="510" y="120" width="240" height="40" as="geometry" />
        </mxCell>
        <mxCell id="iS44KgR9TKx3VwQNo01--29" value="" style="shape=tableRow;horizontal=0;startSize=0;swimlaneHead=0;swimlaneBody=0;top=0;left=0;bottom=0;right=0;collapsible=0;dropTarget=0;fillColor=none;points=[[0,0.5],[1,0.5]];portConstraint=eastwest;fontFamily=Tahoma;" parent="iS44KgR9TKx3VwQNo01--28" vertex="1">
          <mxGeometry width="240" height="40" as="geometry" />
        </mxCell>
        <mxCell id="iS44KgR9TKx3VwQNo01--30" value="&lt;b&gt;max_pooling2d_1&lt;/b&gt;" style="shape=partialRectangle;html=1;whiteSpace=wrap;connectable=0;overflow=hidden;fillColor=none;top=0;left=0;bottom=0;right=0;pointerEvents=1;fontFamily=Tahoma;" parent="iS44KgR9TKx3VwQNo01--29" vertex="1">
          <mxGeometry width="120" height="40" as="geometry">
            <mxRectangle width="120" height="40" as="alternateBounds" />
          </mxGeometry>
        </mxCell>
        <mxCell id="iS44KgR9TKx3VwQNo01--31" value="&lt;b&gt;MaxPooling2D&lt;/b&gt;" style="shape=partialRectangle;html=1;whiteSpace=wrap;connectable=0;overflow=hidden;fillColor=none;top=0;left=0;bottom=0;right=0;pointerEvents=1;fontFamily=Tahoma;" parent="iS44KgR9TKx3VwQNo01--29" vertex="1">
          <mxGeometry x="120" width="120" height="40" as="geometry">
            <mxRectangle width="120" height="40" as="alternateBounds" />
          </mxGeometry>
        </mxCell>
        <mxCell id="iS44KgR9TKx3VwQNo01--32" value="" style="shape=table;startSize=0;container=1;collapsible=0;childLayout=tableLayout;fontFamily=Tahoma;" parent="1" vertex="1">
          <mxGeometry x="285.06" y="120" width="190" height="40" as="geometry" />
        </mxCell>
        <mxCell id="iS44KgR9TKx3VwQNo01--33" value="" style="shape=tableRow;horizontal=0;startSize=0;swimlaneHead=0;swimlaneBody=0;top=0;left=0;bottom=0;right=0;collapsible=0;dropTarget=0;fillColor=none;points=[[0,0.5],[1,0.5]];portConstraint=eastwest;fontFamily=Tahoma;" parent="iS44KgR9TKx3VwQNo01--32" vertex="1">
          <mxGeometry width="190" height="40" as="geometry" />
        </mxCell>
        <mxCell id="iS44KgR9TKx3VwQNo01--34" value="&lt;b&gt;dropout_1&lt;/b&gt;" style="shape=partialRectangle;html=1;whiteSpace=wrap;connectable=0;overflow=hidden;fillColor=none;top=0;left=0;bottom=0;right=0;pointerEvents=1;fontFamily=Tahoma;" parent="iS44KgR9TKx3VwQNo01--33" vertex="1">
          <mxGeometry width="95" height="40" as="geometry">
            <mxRectangle width="95" height="40" as="alternateBounds" />
          </mxGeometry>
        </mxCell>
        <mxCell id="iS44KgR9TKx3VwQNo01--35" value="&lt;b&gt;Dropout&lt;/b&gt;" style="shape=partialRectangle;html=1;whiteSpace=wrap;connectable=0;overflow=hidden;fillColor=none;top=0;left=0;bottom=0;right=0;pointerEvents=1;fontFamily=Tahoma;" parent="iS44KgR9TKx3VwQNo01--33" vertex="1">
          <mxGeometry x="95" width="95" height="40" as="geometry">
            <mxRectangle width="95" height="40" as="alternateBounds" />
          </mxGeometry>
        </mxCell>
        <mxCell id="iS44KgR9TKx3VwQNo01--36" value="" style="shape=table;startSize=0;container=1;collapsible=0;childLayout=tableLayout;fontFamily=Tahoma;" parent="1" vertex="1">
          <mxGeometry x="40" y="120" width="210" height="40" as="geometry" />
        </mxCell>
        <mxCell id="iS44KgR9TKx3VwQNo01--37" value="" style="shape=tableRow;horizontal=0;startSize=0;swimlaneHead=0;swimlaneBody=0;top=0;left=0;bottom=0;right=0;collapsible=0;dropTarget=0;fillColor=none;points=[[0,0.5],[1,0.5]];portConstraint=eastwest;fontFamily=Tahoma;" parent="iS44KgR9TKx3VwQNo01--36" vertex="1">
          <mxGeometry width="210" height="40" as="geometry" />
        </mxCell>
        <mxCell id="iS44KgR9TKx3VwQNo01--38" value="&lt;b&gt;conv2d_2&lt;/b&gt;" style="shape=partialRectangle;html=1;whiteSpace=wrap;connectable=0;overflow=hidden;fillColor=none;top=0;left=0;bottom=0;right=0;pointerEvents=1;fontFamily=Tahoma;" parent="iS44KgR9TKx3VwQNo01--37" vertex="1">
          <mxGeometry width="105" height="40" as="geometry">
            <mxRectangle width="105" height="40" as="alternateBounds" />
          </mxGeometry>
        </mxCell>
        <mxCell id="iS44KgR9TKx3VwQNo01--39" value="&lt;b&gt;Conv2D&lt;/b&gt;" style="shape=partialRectangle;html=1;whiteSpace=wrap;connectable=0;overflow=hidden;fillColor=none;top=0;left=0;bottom=0;right=0;pointerEvents=1;fontFamily=Tahoma;" parent="iS44KgR9TKx3VwQNo01--37" vertex="1">
          <mxGeometry x="105" width="105" height="40" as="geometry">
            <mxRectangle width="105" height="40" as="alternateBounds" />
          </mxGeometry>
        </mxCell>
        <mxCell id="iS44KgR9TKx3VwQNo01--40" value="" style="shape=table;startSize=0;container=1;collapsible=0;childLayout=tableLayout;fontFamily=Tahoma;" parent="1" vertex="1">
          <mxGeometry x="40" y="200" width="280" height="40" as="geometry" />
        </mxCell>
        <mxCell id="iS44KgR9TKx3VwQNo01--41" value="" style="shape=tableRow;horizontal=0;startSize=0;swimlaneHead=0;swimlaneBody=0;top=0;left=0;bottom=0;right=0;collapsible=0;dropTarget=0;fillColor=none;points=[[0,0.5],[1,0.5]];portConstraint=eastwest;fontFamily=Tahoma;" parent="iS44KgR9TKx3VwQNo01--40" vertex="1">
          <mxGeometry width="280" height="40" as="geometry" />
        </mxCell>
        <mxCell id="iS44KgR9TKx3VwQNo01--42" value="&lt;b&gt;max_pooling2d_2&lt;/b&gt;" style="shape=partialRectangle;html=1;whiteSpace=wrap;connectable=0;overflow=hidden;fillColor=none;top=0;left=0;bottom=0;right=0;pointerEvents=1;fontFamily=Tahoma;" parent="iS44KgR9TKx3VwQNo01--41" vertex="1">
          <mxGeometry width="140" height="40" as="geometry">
            <mxRectangle width="140" height="40" as="alternateBounds" />
          </mxGeometry>
        </mxCell>
        <mxCell id="iS44KgR9TKx3VwQNo01--43" value="&lt;b&gt;MaxPooling2D&lt;/b&gt;" style="shape=partialRectangle;html=1;whiteSpace=wrap;connectable=0;overflow=hidden;fillColor=none;top=0;left=0;bottom=0;right=0;pointerEvents=1;fontFamily=Tahoma;" parent="iS44KgR9TKx3VwQNo01--41" vertex="1">
          <mxGeometry x="140" width="140" height="40" as="geometry">
            <mxRectangle width="140" height="40" as="alternateBounds" />
          </mxGeometry>
        </mxCell>
        <mxCell id="iS44KgR9TKx3VwQNo01--44" value="" style="shape=table;startSize=0;container=1;collapsible=0;childLayout=tableLayout;fontFamily=Tahoma;" parent="1" vertex="1">
          <mxGeometry x="370.00000000000006" y="200" width="220" height="40" as="geometry" />
        </mxCell>
        <mxCell id="iS44KgR9TKx3VwQNo01--45" value="" style="shape=tableRow;horizontal=0;startSize=0;swimlaneHead=0;swimlaneBody=0;top=0;left=0;bottom=0;right=0;collapsible=0;dropTarget=0;fillColor=none;points=[[0,0.5],[1,0.5]];portConstraint=eastwest;fontFamily=Tahoma;" parent="iS44KgR9TKx3VwQNo01--44" vertex="1">
          <mxGeometry width="220" height="40" as="geometry" />
        </mxCell>
        <mxCell id="iS44KgR9TKx3VwQNo01--46" value="&lt;b&gt;dropout_2&lt;/b&gt;" style="shape=partialRectangle;html=1;whiteSpace=wrap;connectable=0;overflow=hidden;fillColor=none;top=0;left=0;bottom=0;right=0;pointerEvents=1;fontFamily=Tahoma;" parent="iS44KgR9TKx3VwQNo01--45" vertex="1">
          <mxGeometry width="110" height="40" as="geometry">
            <mxRectangle width="110" height="40" as="alternateBounds" />
          </mxGeometry>
        </mxCell>
        <mxCell id="iS44KgR9TKx3VwQNo01--47" value="&lt;b&gt;Dropout&lt;/b&gt;" style="shape=partialRectangle;html=1;whiteSpace=wrap;connectable=0;overflow=hidden;fillColor=none;top=0;left=0;bottom=0;right=0;pointerEvents=1;fontFamily=Tahoma;" parent="iS44KgR9TKx3VwQNo01--45" vertex="1">
          <mxGeometry x="110" width="110" height="40" as="geometry">
            <mxRectangle width="110" height="40" as="alternateBounds" />
          </mxGeometry>
        </mxCell>
        <mxCell id="iS44KgR9TKx3VwQNo01--48" style="edgeStyle=orthogonalEdgeStyle;rounded=0;orthogonalLoop=1;jettySize=auto;html=1;exitX=1;exitY=0.5;exitDx=0;exitDy=0;entryX=1;entryY=0.5;entryDx=0;entryDy=0;strokeWidth=2;fontFamily=Tahoma;" parent="1" source="iS44KgR9TKx3VwQNo01--16" target="iS44KgR9TKx3VwQNo01--25" edge="1">
          <mxGeometry relative="1" as="geometry" />
        </mxCell>
        <mxCell id="iS44KgR9TKx3VwQNo01--49" style="edgeStyle=orthogonalEdgeStyle;rounded=0;orthogonalLoop=1;jettySize=auto;html=1;exitX=0;exitY=0.5;exitDx=0;exitDy=0;entryX=1;entryY=0.5;entryDx=0;entryDy=0;strokeWidth=2;fontFamily=Tahoma;" parent="1" source="iS44KgR9TKx3VwQNo01--25" target="iS44KgR9TKx3VwQNo01--29" edge="1">
          <mxGeometry relative="1" as="geometry" />
        </mxCell>
        <mxCell id="iS44KgR9TKx3VwQNo01--50" style="edgeStyle=orthogonalEdgeStyle;rounded=0;orthogonalLoop=1;jettySize=auto;html=1;exitX=0;exitY=0.5;exitDx=0;exitDy=0;entryX=1;entryY=0.5;entryDx=0;entryDy=0;strokeWidth=2;fontFamily=Tahoma;" parent="1" source="iS44KgR9TKx3VwQNo01--29" target="iS44KgR9TKx3VwQNo01--33" edge="1">
          <mxGeometry relative="1" as="geometry" />
        </mxCell>
        <mxCell id="iS44KgR9TKx3VwQNo01--53" style="edgeStyle=orthogonalEdgeStyle;rounded=0;orthogonalLoop=1;jettySize=auto;html=1;exitX=1;exitY=0.5;exitDx=0;exitDy=0;entryX=0;entryY=0.5;entryDx=0;entryDy=0;strokeWidth=2;fontFamily=Tahoma;" parent="1" source="iS44KgR9TKx3VwQNo01--41" target="iS44KgR9TKx3VwQNo01--45" edge="1">
          <mxGeometry relative="1" as="geometry" />
        </mxCell>
        <mxCell id="iS44KgR9TKx3VwQNo01--57" value="" style="shape=table;startSize=0;container=1;collapsible=0;childLayout=tableLayout;fontFamily=Tahoma;" parent="1" vertex="1">
          <mxGeometry x="630" y="200" width="160" height="40" as="geometry" />
        </mxCell>
        <mxCell id="iS44KgR9TKx3VwQNo01--58" value="" style="shape=tableRow;horizontal=0;startSize=0;swimlaneHead=0;swimlaneBody=0;top=0;left=0;bottom=0;right=0;collapsible=0;dropTarget=0;fillColor=none;points=[[0,0.5],[1,0.5]];portConstraint=eastwest;fontFamily=Tahoma;" parent="iS44KgR9TKx3VwQNo01--57" vertex="1">
          <mxGeometry width="160" height="40" as="geometry" />
        </mxCell>
        <mxCell id="iS44KgR9TKx3VwQNo01--59" value="&lt;b&gt;flatten&lt;/b&gt;" style="shape=partialRectangle;html=1;whiteSpace=wrap;connectable=0;overflow=hidden;fillColor=none;top=0;left=0;bottom=0;right=0;pointerEvents=1;fontFamily=Tahoma;" parent="iS44KgR9TKx3VwQNo01--58" vertex="1">
          <mxGeometry width="80" height="40" as="geometry">
            <mxRectangle width="80" height="40" as="alternateBounds" />
          </mxGeometry>
        </mxCell>
        <mxCell id="iS44KgR9TKx3VwQNo01--60" value="&lt;b&gt;Flatten&lt;/b&gt;" style="shape=partialRectangle;html=1;whiteSpace=wrap;connectable=0;overflow=hidden;fillColor=none;top=0;left=0;bottom=0;right=0;pointerEvents=1;fontFamily=Tahoma;" parent="iS44KgR9TKx3VwQNo01--58" vertex="1">
          <mxGeometry x="80" width="80" height="40" as="geometry">
            <mxRectangle width="80" height="40" as="alternateBounds" />
          </mxGeometry>
        </mxCell>
        <mxCell id="iS44KgR9TKx3VwQNo01--61" style="edgeStyle=orthogonalEdgeStyle;rounded=0;orthogonalLoop=1;jettySize=auto;html=1;exitX=1;exitY=0.5;exitDx=0;exitDy=0;strokeWidth=2;fontFamily=Tahoma;" parent="iS44KgR9TKx3VwQNo01--57" source="iS44KgR9TKx3VwQNo01--58" target="iS44KgR9TKx3VwQNo01--58" edge="1">
          <mxGeometry relative="1" as="geometry" />
        </mxCell>
        <mxCell id="iS44KgR9TKx3VwQNo01--62" value="" style="shape=table;startSize=0;container=1;collapsible=0;childLayout=tableLayout;fontFamily=Tahoma;" parent="1" vertex="1">
          <mxGeometry x="839.94" y="200" width="160" height="40" as="geometry" />
        </mxCell>
        <mxCell id="iS44KgR9TKx3VwQNo01--63" value="" style="shape=tableRow;horizontal=0;startSize=0;swimlaneHead=0;swimlaneBody=0;top=0;left=0;bottom=0;right=0;collapsible=0;dropTarget=0;fillColor=none;points=[[0,0.5],[1,0.5]];portConstraint=eastwest;fontFamily=Tahoma;" parent="iS44KgR9TKx3VwQNo01--62" vertex="1">
          <mxGeometry width="160" height="40" as="geometry" />
        </mxCell>
        <mxCell id="iS44KgR9TKx3VwQNo01--64" value="&lt;b&gt;dense&lt;/b&gt;" style="shape=partialRectangle;html=1;whiteSpace=wrap;connectable=0;overflow=hidden;fillColor=none;top=0;left=0;bottom=0;right=0;pointerEvents=1;fontFamily=Tahoma;" parent="iS44KgR9TKx3VwQNo01--63" vertex="1">
          <mxGeometry width="80" height="40" as="geometry">
            <mxRectangle width="80" height="40" as="alternateBounds" />
          </mxGeometry>
        </mxCell>
        <mxCell id="iS44KgR9TKx3VwQNo01--65" value="&lt;b&gt;Dense&lt;/b&gt;" style="shape=partialRectangle;html=1;whiteSpace=wrap;connectable=0;overflow=hidden;fillColor=none;top=0;left=0;bottom=0;right=0;pointerEvents=1;fontFamily=Tahoma;" parent="iS44KgR9TKx3VwQNo01--63" vertex="1">
          <mxGeometry x="80" width="80" height="40" as="geometry">
            <mxRectangle width="80" height="40" as="alternateBounds" />
          </mxGeometry>
        </mxCell>
        <mxCell id="iS44KgR9TKx3VwQNo01--66" style="edgeStyle=orthogonalEdgeStyle;rounded=0;orthogonalLoop=1;jettySize=auto;html=1;exitX=1;exitY=0.5;exitDx=0;exitDy=0;strokeWidth=2;fontFamily=Tahoma;" parent="iS44KgR9TKx3VwQNo01--62" source="iS44KgR9TKx3VwQNo01--63" target="iS44KgR9TKx3VwQNo01--63" edge="1">
          <mxGeometry relative="1" as="geometry" />
        </mxCell>
        <mxCell id="iS44KgR9TKx3VwQNo01--67" value="" style="shape=table;startSize=0;container=1;collapsible=0;childLayout=tableLayout;fontFamily=Tahoma;" parent="1" vertex="1">
          <mxGeometry x="780" y="280" width="220" height="40" as="geometry" />
        </mxCell>
        <mxCell id="iS44KgR9TKx3VwQNo01--68" value="" style="shape=tableRow;horizontal=0;startSize=0;swimlaneHead=0;swimlaneBody=0;top=0;left=0;bottom=0;right=0;collapsible=0;dropTarget=0;fillColor=none;points=[[0,0.5],[1,0.5]];portConstraint=eastwest;fontFamily=Tahoma;" parent="iS44KgR9TKx3VwQNo01--67" vertex="1">
          <mxGeometry width="220" height="40" as="geometry" />
        </mxCell>
        <mxCell id="iS44KgR9TKx3VwQNo01--69" value="&lt;b&gt;dropout_3&lt;/b&gt;" style="shape=partialRectangle;html=1;whiteSpace=wrap;connectable=0;overflow=hidden;fillColor=none;top=0;left=0;bottom=0;right=0;pointerEvents=1;fontFamily=Tahoma;" parent="iS44KgR9TKx3VwQNo01--68" vertex="1">
          <mxGeometry width="110" height="40" as="geometry">
            <mxRectangle width="110" height="40" as="alternateBounds" />
          </mxGeometry>
        </mxCell>
        <mxCell id="iS44KgR9TKx3VwQNo01--70" value="&lt;b&gt;Dropout&lt;/b&gt;" style="shape=partialRectangle;html=1;whiteSpace=wrap;connectable=0;overflow=hidden;fillColor=none;top=0;left=0;bottom=0;right=0;pointerEvents=1;fontFamily=Tahoma;" parent="iS44KgR9TKx3VwQNo01--68" vertex="1">
          <mxGeometry x="110" width="110" height="40" as="geometry">
            <mxRectangle width="110" height="40" as="alternateBounds" />
          </mxGeometry>
        </mxCell>
        <mxCell id="iS44KgR9TKx3VwQNo01--71" value="" style="shape=table;startSize=0;container=1;collapsible=0;childLayout=tableLayout;fontFamily=Tahoma;" parent="1" vertex="1">
          <mxGeometry x="579.94" y="280" width="160" height="40" as="geometry" />
        </mxCell>
        <mxCell id="iS44KgR9TKx3VwQNo01--72" value="" style="shape=tableRow;horizontal=0;startSize=0;swimlaneHead=0;swimlaneBody=0;top=0;left=0;bottom=0;right=0;collapsible=0;dropTarget=0;fillColor=none;points=[[0,0.5],[1,0.5]];portConstraint=eastwest;fontFamily=Tahoma;" parent="iS44KgR9TKx3VwQNo01--71" vertex="1">
          <mxGeometry width="160" height="40" as="geometry" />
        </mxCell>
        <mxCell id="iS44KgR9TKx3VwQNo01--73" value="&lt;b&gt;dense_1&lt;/b&gt;" style="shape=partialRectangle;html=1;whiteSpace=wrap;connectable=0;overflow=hidden;fillColor=none;top=0;left=0;bottom=0;right=0;pointerEvents=1;fontFamily=Tahoma;" parent="iS44KgR9TKx3VwQNo01--72" vertex="1">
          <mxGeometry width="80" height="40" as="geometry">
            <mxRectangle width="80" height="40" as="alternateBounds" />
          </mxGeometry>
        </mxCell>
        <mxCell id="iS44KgR9TKx3VwQNo01--74" value="&lt;b&gt;Dense&lt;/b&gt;" style="shape=partialRectangle;html=1;whiteSpace=wrap;connectable=0;overflow=hidden;fillColor=none;top=0;left=0;bottom=0;right=0;pointerEvents=1;fontFamily=Tahoma;" parent="iS44KgR9TKx3VwQNo01--72" vertex="1">
          <mxGeometry x="80" width="80" height="40" as="geometry">
            <mxRectangle width="80" height="40" as="alternateBounds" />
          </mxGeometry>
        </mxCell>
        <mxCell id="iS44KgR9TKx3VwQNo01--75" style="edgeStyle=orthogonalEdgeStyle;rounded=0;orthogonalLoop=1;jettySize=auto;html=1;exitX=1;exitY=0.5;exitDx=0;exitDy=0;strokeWidth=2;fontFamily=Tahoma;" parent="iS44KgR9TKx3VwQNo01--71" source="iS44KgR9TKx3VwQNo01--72" target="iS44KgR9TKx3VwQNo01--72" edge="1">
          <mxGeometry relative="1" as="geometry" />
        </mxCell>
        <mxCell id="iS44KgR9TKx3VwQNo01--79" style="edgeStyle=orthogonalEdgeStyle;rounded=0;orthogonalLoop=1;jettySize=auto;html=1;exitX=0;exitY=0.5;exitDx=0;exitDy=0;entryX=1;entryY=0.5;entryDx=0;entryDy=0;strokeWidth=2;fontFamily=Tahoma;" parent="1" source="iS44KgR9TKx3VwQNo01--68" target="iS44KgR9TKx3VwQNo01--72" edge="1">
          <mxGeometry relative="1" as="geometry" />
        </mxCell>
        <mxCell id="iS44KgR9TKx3VwQNo01--81" value="" style="shape=table;startSize=0;container=1;collapsible=0;childLayout=tableLayout;fontFamily=Tahoma;" parent="1" vertex="1">
          <mxGeometry x="40" y="40" width="220" height="40" as="geometry" />
        </mxCell>
        <mxCell id="iS44KgR9TKx3VwQNo01--82" value="" style="shape=tableRow;horizontal=0;startSize=0;swimlaneHead=0;swimlaneBody=0;top=0;left=0;bottom=0;right=0;collapsible=0;dropTarget=0;fillColor=none;points=[[0,0.5],[1,0.5]];portConstraint=eastwest;fontFamily=Tahoma;" parent="iS44KgR9TKx3VwQNo01--81" vertex="1">
          <mxGeometry width="220" height="40" as="geometry" />
        </mxCell>
        <mxCell id="iS44KgR9TKx3VwQNo01--83" value="&lt;b&gt;conv2d_input&lt;/b&gt;" style="shape=partialRectangle;html=1;whiteSpace=wrap;connectable=0;overflow=hidden;fillColor=none;top=0;left=0;bottom=0;right=0;pointerEvents=1;fontFamily=Tahoma;" parent="iS44KgR9TKx3VwQNo01--82" vertex="1">
          <mxGeometry width="110" height="40" as="geometry">
            <mxRectangle width="110" height="40" as="alternateBounds" />
          </mxGeometry>
        </mxCell>
        <mxCell id="iS44KgR9TKx3VwQNo01--84" value="&lt;b&gt;InputLayer&lt;/b&gt;" style="shape=partialRectangle;html=1;whiteSpace=wrap;connectable=0;overflow=hidden;fillColor=none;top=0;left=0;bottom=0;right=0;pointerEvents=1;fontFamily=Tahoma;" parent="iS44KgR9TKx3VwQNo01--82" vertex="1">
          <mxGeometry x="110" width="110" height="40" as="geometry">
            <mxRectangle width="110" height="40" as="alternateBounds" />
          </mxGeometry>
        </mxCell>
        <mxCell id="iS44KgR9TKx3VwQNo01--87" style="edgeStyle=orthogonalEdgeStyle;rounded=0;orthogonalLoop=1;jettySize=auto;html=1;exitX=0;exitY=0.5;exitDx=0;exitDy=0;entryX=1;entryY=0.5;entryDx=0;entryDy=0;fontFamily=Tahoma;strokeWidth=2;" parent="1" source="iS44KgR9TKx3VwQNo01--33" target="iS44KgR9TKx3VwQNo01--37" edge="1">
          <mxGeometry relative="1" as="geometry" />
        </mxCell>
        <mxCell id="iS44KgR9TKx3VwQNo01--88" style="edgeStyle=orthogonalEdgeStyle;rounded=0;orthogonalLoop=1;jettySize=auto;html=1;exitX=1;exitY=0.5;exitDx=0;exitDy=0;entryX=0;entryY=0.5;entryDx=0;entryDy=0;fontFamily=Tahoma;strokeWidth=2;" parent="1" source="iS44KgR9TKx3VwQNo01--82" target="iS44KgR9TKx3VwQNo01--8" edge="1">
          <mxGeometry relative="1" as="geometry" />
        </mxCell>
        <mxCell id="iS44KgR9TKx3VwQNo01--89" style="edgeStyle=orthogonalEdgeStyle;rounded=0;orthogonalLoop=1;jettySize=auto;html=1;exitX=0;exitY=0.5;exitDx=0;exitDy=0;entryX=0;entryY=0.5;entryDx=0;entryDy=0;fontFamily=Tahoma;strokeWidth=2;" parent="1" source="iS44KgR9TKx3VwQNo01--37" target="iS44KgR9TKx3VwQNo01--41" edge="1">
          <mxGeometry relative="1" as="geometry" />
        </mxCell>
        <mxCell id="iS44KgR9TKx3VwQNo01--90" style="edgeStyle=orthogonalEdgeStyle;rounded=0;orthogonalLoop=1;jettySize=auto;html=1;exitX=1;exitY=0.5;exitDx=0;exitDy=0;entryX=0;entryY=0.5;entryDx=0;entryDy=0;fontFamily=Tahoma;strokeWidth=2;" parent="1" source="iS44KgR9TKx3VwQNo01--45" target="iS44KgR9TKx3VwQNo01--58" edge="1">
          <mxGeometry relative="1" as="geometry" />
        </mxCell>
        <mxCell id="iS44KgR9TKx3VwQNo01--91" style="edgeStyle=orthogonalEdgeStyle;rounded=0;orthogonalLoop=1;jettySize=auto;html=1;exitX=1;exitY=0.5;exitDx=0;exitDy=0;entryX=0;entryY=0.5;entryDx=0;entryDy=0;fontFamily=Tahoma;strokeWidth=2;" parent="1" source="iS44KgR9TKx3VwQNo01--58" target="iS44KgR9TKx3VwQNo01--63" edge="1">
          <mxGeometry relative="1" as="geometry" />
        </mxCell>
        <mxCell id="iS44KgR9TKx3VwQNo01--92" style="edgeStyle=orthogonalEdgeStyle;rounded=0;orthogonalLoop=1;jettySize=auto;html=1;exitX=1;exitY=0.5;exitDx=0;exitDy=0;entryX=1;entryY=0.5;entryDx=0;entryDy=0;fontFamily=Tahoma;strokeWidth=2;" parent="1" source="iS44KgR9TKx3VwQNo01--63" target="iS44KgR9TKx3VwQNo01--68" edge="1">
          <mxGeometry relative="1" as="geometry" />
        </mxCell>
      </root>
    </mxGraphModel>
  </diagram>
</mxfile>
